<?xml version="1.0" standalone="no"?>
<!DOCTYPE svg PUBLIC "-//W3C//DTD SVG 20010904//EN"
 "http://www.w3.org/TR/2001/REC-SVG-20010904/DTD/svg10.dtd">
<svg version="1.0" xmlns="http://www.w3.org/2000/svg"
 width="500.000000pt" height="500.000000pt" viewBox="0 0 500.000000 500.000000"
 preserveAspectRatio="xMidYMid meet">
<metadata>
Created by potrace 1.14, written by Peter Selinger 2001-2017
</metadata>
<g transform="translate(0.000000,500.000000) scale(0.100000,-0.100000)"
fill="#000000" stroke="none">
<path d="M0 2500 l0 -2500 2500 0 2500 0 0 2500 0 2500 -2500 0 -2500 0 0
-2500z m1090 536 l0 -74 -40 -7 c-77 -13 -83 -25 -91 -176 -4 -74 -11 -145
-17 -159 -14 -36 -49 -65 -107 -90 l-50 -22 65 -31 c95 -47 100 -57 109 -226
8 -162 13 -173 91 -186 l40 -7 0 -79 0 -80 -37 6 c-150 24 -188 37 -229 79
-50 50 -64 103 -64 247 0 138 -15 162 -112 185 -28 6 -28 6 -28 94 l0 88 41 7
c22 4 52 17 67 30 25 21 26 28 33 162 10 184 29 232 111 274 39 20 115 36 181
38 l37 1 0 -74z m3001 49 c24 -8 57 -27 72 -41 51 -47 60 -79 67 -225 5 -106
10 -143 24 -164 18 -28 70 -55 106 -55 19 0 20 -6 20 -89 l0 -89 -37 -7 c-46
-8 -78 -28 -94 -56 -6 -12 -14 -83 -18 -159 -7 -123 -10 -142 -34 -182 -34
-58 -87 -85 -199 -102 l-88 -13 0 78 0 77 39 7 c22 4 49 17 62 31 22 24 24 36
29 162 7 171 18 190 128 232 l46 18 -66 30 c-95 43 -102 57 -108 223 -6 157
-13 172 -87 191 l-43 10 0 76 0 75 68 -6 c37 -4 88 -14 113 -22z m-2439 -95
c80 0 89 -2 102 -22 16 -25 326 -913 326 -935 0 -16 -171 -19 -200 -3 -11 6
-30 46 -50 104 -37 111 -26 106 -226 106 -157 0 -159 -1 -194 -104 -35 -105
-41 -110 -154 -114 -78 -3 -96 -1 -96 10 0 8 72 224 160 479 88 255 160 465
160 467 0 8 48 21 65 17 11 -3 59 -5 107 -5z m1110 -33 c109 -54 170 -160 171
-297 1 -60 -4 -86 -25 -130 -32 -70 -88 -126 -158 -159 -49 -23 -70 -26 -197
-29 l-143 -4 0 -154 0 -154 -100 0 -100 0 0 481 0 480 248 -3 247 -3 57 -28z
m1068 -47 l0 -80 -150 0 -150 0 0 -400 0 -400 -100 0 -100 0 0 395 0 395 -150
0 -150 0 0 85 0 85 400 0 400 0 0 -80z"/>
<path d="M1557 2596 c-31 -96 -57 -179 -57 -185 0 -14 226 -15 235 -1 7 11
-105 360 -115 360 -3 0 -32 -78 -63 -174z"/>
<path d="M2410 2665 l0 -168 105 5 c120 7 160 23 187 78 10 20 18 57 18 85 0
28 -8 65 -18 85 -27 55 -67 71 -187 78 l-105 5 0 -168z"/>
</g>
</svg>
