<svg version="1.1" id="Layer_1" xmlns="http://www.w3.org/2000/svg" xmlns:xlink="http://www.w3.org/1999/xlink" x="0px" y="0px"
	 width="100%" viewBox="0 0 1392 1153" enable-background="new 0 0 1392 1153" xml:space="preserve">
<path fill="#F7F5F1" opacity="1.000000" stroke="none" 
	d="
M836.000000,1154.000000 
	C557.333313,1154.000000 279.166656,1154.000000 1.000000,1154.000000 
	C1.000000,769.666687 1.000000,385.333344 1.000000,1.000000 
	C465.000000,1.000000 929.000000,1.000000 1393.000000,1.000000 
	C1393.000000,385.333344 1393.000000,769.666687 1393.000000,1154.000000 
	C1207.500000,1154.000000 1022.000000,1154.000000 836.000000,1154.000000 
M973.500000,4.936823 
	C649.895142,4.936823 326.290314,4.936823 2.424388,4.936823 
	C2.424388,355.191223 2.424388,704.918945 2.424388,1054.955811 
	C465.559509,1054.955811 928.431458,1054.955811 1391.570190,1054.955811 
	C1391.570190,704.950195 1391.570190,355.221283 1391.570190,4.936798 
	C1252.384155,4.936798 1113.442139,4.936798 973.500000,4.936823 
M905.428772,1121.126953 
	C906.887756,1126.041138 908.346741,1130.955322 909.808228,1135.877930 
	C913.267212,1135.877930 916.405701,1135.877930 919.716248,1135.877930 
	C922.767456,1125.554688 925.796997,1115.304565 929.182800,1103.849121 
	C932.563904,1115.407959 935.533936,1125.561523 938.525940,1135.790161 
	C942.037964,1135.790161 945.315186,1135.790161 948.621277,1135.790161 
	C953.214661,1119.711548 957.751038,1103.832520 962.354614,1087.718262 
	C958.225342,1087.718262 954.789001,1087.718262 951.225342,1087.718262 
	C948.600891,1098.525391 946.025513,1109.130859 943.450073,1119.736206 
	C940.286377,1111.527222 938.142517,1103.515625 936.056213,1095.488892 
	C933.891479,1087.160767 933.915649,1087.151245 925.380615,1087.566406 
	C925.068726,1087.581665 924.765564,1087.777954 924.239197,1087.969604 
	C921.429626,1098.547241 918.586304,1109.251831 915.492737,1120.898682 
	C914.801880,1118.913452 914.340637,1117.878540 914.080933,1116.795410 
	C912.027466,1108.231689 909.917603,1099.679443 908.040283,1091.076660 
	C907.436401,1088.309326 906.302185,1087.089478 903.364075,1087.414795 
	C901.002075,1087.676270 898.588074,1087.467651 895.902771,1087.467651 
	C899.149719,1098.974976 902.166077,1109.665039 905.428772,1121.126953 
M1061.822266,1125.485107 
	C1061.822266,1128.907715 1061.822266,1132.330322 1061.822266,1136.006348 
	C1067.848755,1136.006348 1073.308838,1136.025879 1078.768555,1135.993530 
	C1080.260376,1135.984741 1081.771240,1135.943970 1083.239624,1135.707886 
	C1098.576660,1133.240845 1106.446899,1118.809692 1101.395020,1102.639160 
	C1099.069336,1095.195435 1094.242310,1089.799072 1086.722290,1088.556885 
	C1078.666748,1087.226196 1070.337891,1087.549805 1061.822266,1087.136719 
	C1061.822266,1100.247070 1061.822266,1112.367432 1061.822266,1125.485107 
M1299.822144,1101.101685 
	C1298.642334,1102.278076 1297.462524,1103.454590 1296.077515,1104.835693 
	C1295.884644,1102.916992 1295.738525,1101.462524 1295.585815,1099.943115 
	C1292.280273,1099.943115 1289.188843,1099.943115 1286.134766,1099.943115 
	C1286.134766,1116.585693 1286.134766,1132.966187 1286.134766,1149.402588 
	C1289.517822,1149.402588 1292.577759,1149.402588 1295.939697,1149.402588 
	C1295.939697,1146.123169 1295.939575,1143.151245 1295.939575,1140.179199 
	C1295.939575,1137.282104 1295.939697,1134.385132 1295.939697,1130.845337 
	C1304.928833,1141.464722 1318.552368,1135.444580 1320.067627,1125.384766 
	C1320.861206,1120.116577 1321.069336,1114.351807 1319.765747,1109.266602 
	C1317.488892,1100.384277 1309.115112,1097.126465 1299.822144,1101.101685 
M1003.924316,1134.293213 
	C1007.088806,1135.091919 1010.253235,1135.890747 1013.538879,1136.720093 
	C1013.881042,1134.182861 1014.079102,1132.714111 1014.352112,1130.689819 
	C1019.904419,1139.712646 1033.463257,1137.394287 1037.113892,1128.520752 
	C1040.191040,1121.041138 1040.428955,1113.597656 1036.745972,1106.381836 
	C1033.495728,1100.013672 1025.639282,1097.197754 1019.767883,1100.114746 
	C1017.726135,1101.129028 1016.082886,1102.945435 1013.816772,1104.745728 
	C1013.816772,1098.742920 1013.816772,1093.306396 1013.816772,1087.733032 
	C1010.432495,1087.733032 1007.346252,1087.733032 1003.919250,1087.733032 
	C1003.919250,1103.099854 1003.919250,1118.214844 1003.924316,1134.293213 
M562.125916,1103.503296 
	C562.125916,1114.252197 562.125916,1125.001099 562.125916,1135.873779 
	C565.822021,1135.873779 568.938538,1135.873779 572.455078,1135.873779 
	C572.455078,1129.306396 572.455078,1122.882324 572.455078,1115.921631 
	C579.211121,1115.921631 585.579529,1115.921631 591.886841,1115.921631 
	C591.886841,1112.789062 591.886841,1110.204590 591.886841,1107.170776 
	C585.330933,1107.170776 579.091736,1107.170776 572.741028,1107.170776 
	C572.741028,1103.284302 572.741028,1099.854126 572.741028,1095.896240 
	C579.947571,1095.896240 586.988586,1095.896240 593.994629,1095.896240 
	C593.994629,1092.791626 593.994629,1090.225220 593.994629,1087.762939 
	C583.226624,1087.762939 572.816284,1087.762939 562.125916,1087.762939 
	C562.125916,1092.892334 562.125916,1097.699097 562.125916,1103.503296 
M979.730469,1129.024902 
	C974.952576,1128.317749 972.422974,1125.807007 972.804321,1120.289185 
	C980.981079,1120.289185 988.893250,1120.289185 996.750549,1120.289185 
	C997.820068,1108.035400 992.632935,1100.580933 982.398193,1099.158813 
	C972.487610,1097.781494 964.491882,1103.766357 962.733704,1113.877808 
	C960.806396,1124.961792 965.966492,1133.890625 975.299805,1136.125366 
	C985.054382,1138.460693 996.155823,1133.539062 996.389954,1125.693237 
	C992.458862,1125.237061 988.511047,1123.496338 985.161499,1127.704956 
	C984.346680,1128.728760 982.125671,1128.633301 979.730469,1129.024902 
M1219.845459,1113.031006 
	C1216.790527,1102.608276 1209.769409,1097.704224 1200.055298,1099.208008 
	C1191.133301,1100.589233 1185.410156,1107.754761 1185.278320,1117.709595 
	C1185.139771,1128.161743 1190.804321,1135.103638 1200.657837,1136.536621 
	C1208.925293,1137.738892 1218.788452,1133.542847 1219.520630,1125.691162 
	C1215.598511,1125.295288 1212.004517,1123.755493 1208.171143,1127.457275 
	C1206.561768,1129.011353 1202.049805,1128.808472 1199.525024,1127.774292 
	C1197.470215,1126.932861 1196.410400,1123.661743 1194.909302,1121.468018 
	C1195.300903,1121.070435 1195.692505,1120.672974 1196.084106,1120.275391 
	C1203.993164,1120.275391 1211.902222,1120.275391 1219.952881,1120.275391 
	C1219.952881,1117.845093 1219.952881,1115.863892 1219.845459,1113.031006 
M1128.987427,1099.183472 
	C1114.081055,1097.544556 1105.583008,1109.543823 1109.618164,1124.870361 
	C1111.285645,1131.203735 1115.710571,1135.004028 1122.204224,1136.192139 
	C1129.120972,1137.457642 1135.518677,1136.574219 1140.441040,1131.001465 
	C1141.649902,1129.632812 1142.265991,1127.740723 1143.441284,1125.556763 
	C1138.636230,1125.390381 1134.962524,1123.913452 1131.164673,1127.605469 
	C1129.553955,1129.171265 1124.779053,1128.590088 1122.038208,1127.494385 
	C1120.222778,1126.768677 1119.465698,1123.395386 1117.737793,1120.323853 
	C1123.315308,1120.323853 1127.124634,1120.323853 1130.933838,1120.323853 
	C1134.899292,1120.323853 1138.864746,1120.323853 1142.767456,1120.323853 
	C1144.398071,1109.049927 1140.082153,1102.200684 1128.987427,1099.183472 
M658.395325,1120.265869 
	C661.215698,1111.948486 656.588440,1102.623291 648.351135,1100.023438 
	C634.196960,1095.556519 623.100830,1105.723755 624.945984,1121.548218 
	C625.746826,1128.416870 629.274780,1133.563843 635.945435,1135.600708 
	C643.294739,1137.844604 650.503174,1137.369385 656.191589,1131.302490 
	C657.535217,1129.869385 658.209473,1127.808838 659.496887,1125.486084 
	C654.592957,1125.334961 650.822754,1123.988892 647.135864,1127.723267 
	C645.686646,1129.191406 641.226990,1128.974976 638.888916,1127.897339 
	C636.772888,1126.921875 635.678589,1123.729492 634.133728,1121.514771 
	C634.505981,1121.115479 634.878296,1120.716064 635.250549,1120.316650 
	C642.688599,1120.316650 650.126587,1120.316650 658.395325,1120.265869 
M675.018127,1123.693726 
	C674.153198,1120.946899 675.347046,1120.233154 677.975342,1120.281372 
	C684.925476,1120.408936 691.879517,1120.324707 698.774780,1120.324707 
	C700.101440,1108.343750 694.703125,1100.458984 684.628784,1099.154297 
	C674.249634,1097.810059 666.086548,1104.247559 664.778931,1114.808105 
	C663.272278,1126.975708 669.247620,1135.337646 680.361084,1136.613770 
	C689.869202,1137.705566 697.427734,1133.078247 698.486145,1124.754761 
	C695.161438,1125.280884 691.405396,1124.829712 689.104797,1126.447998 
	C683.587646,1130.328247 679.385010,1130.158325 675.018127,1123.693726 
M1351.436035,1120.323853 
	C1354.563721,1120.323853 1357.691406,1120.323853 1360.766357,1120.323853 
	C1362.130371,1108.409668 1356.718750,1100.477905 1346.655640,1099.156250 
	C1336.268066,1097.791992 1328.202271,1104.125244 1326.782349,1114.761230 
	C1325.192993,1126.665894 1330.950317,1135.020630 1341.786865,1136.534790 
	C1351.331543,1137.868652 1359.331055,1133.175049 1360.419800,1125.501953 
	C1356.459106,1125.265381 1352.698975,1124.029053 1349.023438,1127.668945 
	C1347.541748,1129.136230 1343.136230,1128.929199 1340.792480,1127.868652 
	C1338.678589,1126.912109 1337.562744,1123.750000 1336.006836,1121.560547 
	C1336.375732,1121.148315 1336.744629,1120.736084 1337.113525,1120.323853 
	C1341.561157,1120.323853 1346.008911,1120.323853 1351.436035,1120.323853 
M869.697205,1134.376465 
	C873.080627,1132.421143 875.656006,1129.922363 875.964111,1125.570068 
	C871.542175,1125.017700 867.896118,1124.449951 864.142639,1127.747192 
	C862.486267,1129.202271 858.005432,1128.635376 855.468323,1127.503662 
	C853.556824,1126.651001 852.697998,1123.438232 850.720825,1120.217529 
	C860.519287,1120.217529 868.458191,1120.217529 876.343750,1120.217529 
	C877.586731,1107.753906 871.251587,1099.532959 860.386230,1099.062012 
	C849.401184,1098.585693 841.934204,1106.191650 841.914185,1117.877563 
	C841.888245,1133.013062 853.914917,1140.509155 869.697205,1134.376465 
M724.053467,1109.663452 
	C728.182007,1110.301514 732.389954,1111.804199 735.709961,1107.459717 
	C736.321350,1106.659668 738.494995,1106.209106 739.418823,1106.666260 
	C741.393921,1107.643433 743.022827,1109.320068 744.793518,1110.710327 
	C743.240295,1111.822510 741.831604,1113.428345 740.101013,1113.935303 
	C737.254700,1114.769287 734.148865,1114.674927 731.243225,1115.358032 
	C725.029358,1116.818726 721.861206,1120.990845 722.284546,1126.726318 
	C722.688049,1132.193115 726.326050,1136.268433 732.441467,1136.344482 
	C736.583191,1136.395996 740.747742,1134.620117 745.185791,1133.596069 
	C745.162720,1133.514160 745.515076,1134.762817 745.803223,1135.784058 
	C749.010742,1135.784058 751.788818,1135.784058 754.921936,1135.784058 
	C754.921936,1127.098999 755.199646,1118.623047 754.752808,1110.185547 
	C754.618469,1107.651001 753.067078,1104.518188 751.133240,1102.869751 
	C743.112061,1096.031982 726.169006,1098.292725 724.053467,1109.663452 
M1272.665649,1102.725586 
	C1258.754272,1094.160400 1244.460327,1100.987183 1243.350098,1116.726685 
	C1242.635254,1126.859131 1248.343140,1134.633301 1257.735229,1136.319336 
	C1267.760376,1138.118896 1276.200439,1133.280151 1278.455688,1123.833984 
	C1280.270874,1116.230957 1279.455200,1108.943115 1272.665649,1102.725586 
M762.822144,1104.708008 
	C762.822144,1115.096558 762.822144,1125.485107 762.822144,1135.623413 
	C766.586853,1135.623413 769.642700,1135.623413 772.863342,1135.623413 
	C772.863342,1128.600708 772.771606,1121.959839 772.892700,1115.322876 
	C772.987732,1110.117432 775.529236,1107.429810 779.875610,1107.543579 
	C784.030823,1107.652344 786.019470,1110.130371 786.051819,1115.411987 
	C786.093201,1122.172607 786.061829,1128.933838 786.061829,1135.781860 
	C789.662292,1135.781860 792.741638,1135.781860 796.042969,1135.781860 
	C796.042969,1127.120728 796.348999,1118.668579 795.949158,1110.249878 
	C795.609741,1103.102905 789.719910,1098.156372 782.728149,1099.232666 
	C779.233337,1099.770630 775.998108,1101.994751 772.520874,1103.510376 
	C772.419556,1102.718994 772.240906,1101.323608 772.050964,1099.840210 
	C768.959351,1099.840210 766.180847,1099.840210 763.093628,1099.840210 
	C762.997192,1101.235596 762.909668,1102.501465 762.822144,1104.708008 
M824.314697,1107.982666 
	C825.571167,1109.638672 826.827637,1111.294678 827.880127,1112.681885 
	C831.010559,1112.681885 833.903870,1112.681885 836.826965,1112.681885 
	C834.983582,1102.705566 828.074402,1097.864380 817.942444,1099.162964 
	C807.712891,1100.474121 801.946411,1108.729126 802.916260,1120.673584 
	C803.714600,1130.505859 810.839111,1136.829224 820.993286,1136.717773 
	C830.166382,1136.617188 836.180115,1131.251587 836.425232,1122.814087 
	C832.212952,1122.795898 828.095276,1121.430420 825.076721,1126.678589 
	C822.888245,1130.483643 816.121826,1129.110962 814.541748,1124.574829 
	C813.347229,1121.145752 813.074463,1117.042847 813.640808,1113.436035 
	C814.475098,1108.122681 817.996826,1106.464600 824.314697,1107.982666 
M1158.573975,1135.340332 
	C1162.307007,1135.651489 1166.039917,1135.962524 1170.033447,1136.295410 
	C1174.312378,1123.996582 1178.452759,1112.095825 1182.723389,1099.821045 
	C1178.763916,1099.821045 1175.628540,1099.821045 1172.165894,1099.821045 
	C1169.711914,1108.123413 1167.242065,1116.479858 1164.448364,1125.931885 
	C1161.648926,1116.484009 1159.171265,1108.122437 1156.765015,1100.001831 
	C1153.052612,1100.001831 1149.802124,1100.001831 1146.234253,1100.001831 
	C1150.312988,1111.788818 1154.257690,1123.188477 1158.573975,1135.340332 
M600.436096,1116.503174 
	C600.436096,1122.936768 600.436096,1129.370361 600.436096,1135.777100 
	C604.141541,1135.777100 607.240601,1135.777100 610.760925,1135.777100 
	C610.760925,1128.914551 610.657898,1122.294556 610.794189,1115.679565 
	C610.899719,1110.557739 613.462830,1108.133667 618.515503,1107.970215 
	C619.795227,1107.928833 621.077454,1107.963989 622.412598,1107.963989 
	C622.412598,1104.880005 622.412598,1102.144775 622.412598,1097.869141 
	C617.981812,1099.652954 614.375061,1101.104858 610.616394,1102.618042 
	C610.508728,1102.210449 610.192017,1101.011475 609.901001,1099.909912 
	C606.734619,1099.909912 603.802490,1099.909912 600.436096,1099.909912 
	C600.436096,1105.273926 600.436096,1110.390137 600.436096,1116.503174 
M1236.851074,1117.499268 
	C1236.851074,1107.611816 1236.851074,1097.724487 1236.851074,1087.833618 
	C1233.139160,1087.833618 1230.097534,1087.833618 1227.113892,1087.833618 
	C1227.113892,1104.059082 1227.113892,1119.916748 1227.113892,1135.689453 
	C1230.480957,1135.689453 1233.540283,1135.689453 1236.851074,1135.689453 
	C1236.851074,1129.745850 1236.851074,1124.122192 1236.851074,1117.499268 
M705.944885,1088.952515 
	C705.944885,1104.548706 705.944885,1120.145020 705.944885,1135.754395 
	C709.551025,1135.754395 712.628235,1135.754395 715.718872,1135.754395 
	C715.718872,1119.614014 715.718872,1103.723022 715.718872,1087.268921 
	C712.328979,1087.551636 709.248596,1087.808472 705.944885,1088.952515 
M1385.049805,1099.132935 
	C1382.683350,1100.607422 1380.316772,1102.081909 1378.130127,1103.444336 
	C1376.995850,1096.297485 1371.554077,1101.117432 1368.191895,1099.546753 
	C1368.191895,1111.997803 1368.191895,1123.872925 1368.191895,1135.722900 
	C1371.536133,1135.722900 1374.598511,1135.722900 1377.954834,1135.722900 
	C1377.954834,1128.824097 1377.843140,1122.204102 1377.991333,1115.590088 
	C1378.103271,1110.597534 1380.815796,1108.096558 1385.817017,1107.944092 
	C1387.084595,1107.905518 1388.354248,1107.938477 1390.501465,1107.938477 
	C1388.148926,1104.844727 1393.791626,1098.985107 1385.049805,1099.132935 
z"/>
<path fill="#EB691F" opacity="1.000000" stroke="none" 
	d="
M974.000000,4.936810 
	C1113.442139,4.936798 1252.384155,4.936798 1391.570190,4.936798 
	C1391.570190,355.221283 1391.570190,704.950195 1391.570190,1054.955811 
	C928.431458,1054.955811 465.559509,1054.955811 2.424388,1054.955811 
	C2.424388,704.918945 2.424388,355.191223 2.424388,4.936823 
	C326.290314,4.936823 649.895142,4.936823 974.000000,4.936810 
M537.974426,549.657227 
	C540.351318,557.958557 542.728271,566.259888 545.154175,574.732483 
	C550.795410,574.732483 556.122253,574.584534 561.435303,574.791565 
	C564.329224,574.904358 565.468384,573.824097 566.176636,571.058289 
	C567.949280,564.136108 570.107483,557.312744 572.111755,550.449951 
	C575.850708,537.647766 579.590149,524.845764 583.329468,512.043640 
	C584.848755,513.687622 585.455078,515.345398 585.949829,517.035706 
	C591.179199,534.901367 596.327393,552.791443 601.715576,570.608948 
	C602.201904,572.217102 604.119385,574.429626 605.518738,574.542297 
	C611.129639,574.994202 616.798218,574.729065 622.713074,574.729065 
	C631.972229,542.393066 641.150818,510.338287 650.450867,477.859558 
	C642.597717,477.859558 635.511292,477.859558 628.047974,477.859558 
	C622.720520,500.138947 617.398987,522.393494 612.077454,544.648071 
	C611.741028,544.605835 611.404541,544.563660 611.068054,544.521423 
	C605.251221,522.358276 599.434387,500.195129 593.573059,477.862335 
	C587.075562,477.862335 580.805298,477.862335 574.271790,477.862335 
	C568.402100,500.107208 562.554504,522.268127 556.706970,544.429016 
	C556.379639,544.419006 556.052246,544.409058 555.724915,544.399048 
	C550.405090,522.173401 545.085266,499.947754 539.830750,477.994812 
	C532.168701,477.994812 525.100708,477.994812 518.012268,477.994812 
	C518.012268,478.849213 517.901794,479.359192 518.028015,479.801666 
	C524.598694,502.828918 531.189331,525.850525 537.974426,549.657227 
M930.859802,530.265015 
	C930.881592,527.767456 930.993958,525.266907 930.911133,522.772827 
	C930.116577,498.849854 916.856873,481.691162 894.142151,478.754700 
	C879.446411,476.854889 864.305664,478.397430 849.291565,478.397430 
	C849.291565,510.164795 849.291565,542.219238 849.291565,573.868958 
	C864.358582,573.868958 879.150818,574.360229 893.879822,573.610596 
	C899.260010,573.336792 904.875854,570.806396 909.716187,568.107483 
	C924.003052,560.141113 929.337830,546.679260 930.859802,530.265015 
M1205.004761,518.501587 
	C1205.004761,513.069824 1205.004761,507.638000 1205.004761,502.297852 
	C1197.962402,502.297852 1191.572266,502.297852 1184.816162,502.297852 
	C1184.816162,506.220917 1184.816162,509.774170 1184.816162,512.144104 
	C1180.465454,508.904663 1176.287598,504.242340 1171.085327,502.236694 
	C1159.488770,497.765656 1146.129639,503.351532 1139.743530,514.355042 
	C1132.819702,526.284851 1132.425537,539.154602 1135.773804,552.086975 
	C1139.895508,568.005554 1153.709229,576.164429 1169.846313,573.000183 
	C1176.386475,571.717712 1180.751099,567.445435 1184.987183,561.585449 
	C1184.987183,567.451111 1185.621216,572.365601 1184.771484,577.008545 
	C1184.172119,580.284058 1182.270996,584.120300 1179.708008,586.083252 
	C1172.861450,591.326965 1161.959595,589.438232 1156.148926,583.076660 
	C1155.130371,581.961487 1153.141235,581.019470 1151.693726,581.137939 
	C1146.606934,581.554260 1141.561035,582.468079 1136.313232,583.219727 
	C1138.291260,591.579041 1143.438843,596.725830 1150.629028,599.892273 
	C1160.098389,604.062439 1170.068237,604.189270 1180.044922,602.433594 
	C1194.080322,599.963562 1205.885742,591.541870 1205.143921,571.962158 
	C1204.482178,554.498474 1205.004761,536.989929 1205.004761,518.501587 
M222.005173,554.133850 
	C223.936508,559.968811 225.758087,565.844360 227.885941,571.606750 
	C228.346512,572.854065 229.869659,574.533875 230.968781,574.584106 
	C237.226318,574.870178 243.503708,574.722839 250.116196,574.722839 
	C249.931870,573.351807 249.955093,572.522583 249.702286,571.788391 
	C239.215683,541.331604 228.741699,510.870331 218.067184,480.479431 
	C217.613037,479.186493 215.306488,477.815277 213.804230,477.745636 
	C207.326355,477.445435 200.820374,477.783722 194.337601,477.541931 
	C191.408005,477.432678 190.335556,478.638123 189.459961,481.194885 
	C179.130112,511.358673 168.691010,541.485107 158.311005,571.631714 
	C158.015900,572.488831 158.056213,573.461426 157.895309,574.734802 
	C161.560455,574.734802 164.870087,574.734802 168.179718,574.734802 
	C179.223129,574.734802 179.223145,574.734802 182.664856,564.442627 
	C186.632385,552.578003 186.633163,552.493164 199.380951,552.610413 
	C206.815140,552.678772 214.246323,553.070557 222.005173,554.133850 
M733.260681,557.498230 
	C733.260681,563.099121 733.260681,568.699951 733.260681,574.738220 
	C739.090515,574.738220 744.221313,574.757874 749.351807,574.722839 
	C750.479370,574.715149 751.605591,574.513123 753.256165,574.348267 
	C753.256165,570.642090 753.256165,567.107483 753.256165,563.564392 
	C756.745728,566.880981 759.516968,570.561890 763.172668,572.794739 
	C774.567688,579.754761 791.290833,575.195679 798.225220,562.641479 
	C807.138916,546.504028 807.095093,529.682373 797.987915,513.581360 
	C789.255432,498.142792 763.938416,495.514557 755.115356,511.979126 
	C754.950562,512.286560 754.390625,512.382263 753.470215,512.858765 
	C753.470215,500.998352 753.470215,489.573914 753.470215,477.896912 
	C746.603149,477.896912 740.196350,477.896912 733.260925,477.896912 
	C733.260925,504.285706 733.260925,530.392395 733.260681,557.498230 
M331.950409,494.693756 
	C326.409058,483.898468 317.171112,478.582001 305.441895,477.986389 
	C293.985016,477.404633 282.483368,477.700073 271.001312,477.619568 
	C268.221222,477.600098 265.440887,477.616699 262.643738,477.616699 
	C262.643738,510.293335 262.643738,542.313660 262.643738,574.345947 
	C269.583771,574.345947 276.137726,574.345947 283.209381,574.345947 
	C283.209381,563.736389 283.209381,553.510132 283.209381,543.074341 
	C289.883911,543.074341 296.030792,543.159668 302.174652,543.059570 
	C328.213165,542.635315 342.848389,519.377747 331.950409,494.693756 
M668.439331,504.820435 
	C656.680176,511.287903 651.377441,521.793396 650.503113,534.653625 
	C649.542297,548.785767 652.384888,561.964355 665.194763,570.118530 
	C678.286133,578.451843 692.361206,578.230530 706.118286,571.345398 
	C713.053284,567.874573 717.568542,562.162842 719.235779,553.719238 
	C714.549927,553.440979 710.415710,553.344360 706.318237,552.905334 
	C702.989197,552.548767 700.653687,552.886658 698.411316,556.157532 
	C694.872314,561.319763 685.664551,562.439636 679.130676,559.391174 
	C673.204651,556.626343 670.100220,550.713257 671.130188,543.317139 
	C687.237671,543.317139 703.449951,543.317139 719.838379,543.317139 
	C720.280090,531.974976 719.223572,521.655029 712.350464,512.867371 
	C702.968384,500.871674 685.612122,497.564545 668.439331,504.820435 
M972.934814,559.981079 
	C965.322083,556.188171 962.448792,551.345154 963.478943,543.440674 
	C979.484131,543.440674 995.564331,543.440674 1012.071106,543.440674 
	C1012.071106,539.839661 1012.258240,536.706177 1012.038269,533.601501 
	C1011.150391,521.069824 1006.594360,510.414215 994.711609,504.732758 
	C982.354065,498.824341 969.752258,499.020508 958.062561,506.619171 
	C942.663757,516.628906 938.090698,541.552063 947.467346,559.220276 
	C959.171143,581.273438 993.054077,579.508606 1004.384399,566.968872 
	C1007.572693,563.440247 1009.794922,559.038757 1013.277832,553.810303 
	C1005.882996,553.378845 1000.441406,552.980835 994.992920,552.823608 
	C994.097046,552.797791 992.857056,553.613098 992.307617,554.407227 
	C987.587158,561.231079 981.043396,561.905945 972.934814,559.981079 
M1241.165283,554.499817 
	C1241.395752,545.687927 1241.062134,536.813232 1242.032959,528.083679 
	C1242.828369,520.932800 1248.571167,517.409180 1256.217407,517.834351 
	C1262.889038,518.205322 1267.419067,522.637451 1267.862549,529.798523 
	C1268.191528,535.112122 1267.985596,540.459656 1267.991943,545.792114 
	C1268.003418,555.253052 1267.995239,564.713928 1267.995239,574.429993 
	C1274.848511,574.429993 1281.244141,574.429993 1287.828491,574.429993 
	C1287.828491,556.835632 1288.390747,539.515015 1287.619873,522.253967 
	C1287.149170,511.711792 1279.594727,504.138916 1269.936646,501.708832 
	C1259.006836,498.958771 1249.378906,502.284851 1242.958374,511.013092 
	C1242.435303,511.724060 1241.829712,512.374329 1240.293457,514.211548 
	C1240.293457,509.249756 1240.293457,505.711365 1240.293457,502.255859 
	C1233.571045,502.255859 1227.489990,502.255859 1221.385742,502.255859 
	C1221.385742,526.488403 1221.385742,550.387939 1221.385742,574.730530 
	C1224.834351,574.730530 1227.967285,574.730530 1231.100220,574.730530 
	C1234.355835,574.730530 1237.611450,574.730530 1241.165405,574.730530 
	C1241.165405,567.807312 1241.165405,561.653381 1241.165283,554.499817 
M1046.308838,501.617432 
	C1041.713013,503.421997 1036.652100,504.519836 1032.616333,507.175415 
	C1023.690186,513.048889 1021.375977,525.482178 1027.044312,534.108826 
	C1030.854492,539.907654 1036.830688,542.411316 1043.277222,543.927429 
	C1049.260010,545.334473 1055.321045,546.420166 1061.273926,547.937073 
	C1064.468140,548.751099 1067.850952,550.747681 1066.769531,554.378357 
	C1066.021118,556.891479 1063.229248,559.698425 1060.710083,560.615601 
	C1052.581543,563.575378 1046.223511,560.636658 1041.486450,552.536377 
	C1035.215698,552.861084 1028.846069,553.190979 1022.476379,553.520813 
	C1022.106323,554.018799 1021.736328,554.516846 1021.366272,555.014832 
	C1024.150024,559.369385 1026.210571,564.486084 1029.849731,567.939026 
	C1041.958862,579.428528 1069.044067,578.754028 1081.142700,567.225830 
	C1092.026611,556.855042 1089.244385,540.913452 1075.398926,535.087280 
	C1072.060791,533.682617 1068.432739,532.934204 1064.900024,532.032593 
	C1059.440552,530.639160 1053.821167,529.732849 1048.539185,527.859558 
	C1046.685547,527.202148 1044.515259,524.303223 1044.515625,522.428223 
	C1044.515991,520.530640 1046.624878,517.934326 1048.504761,516.863281 
	C1054.981079,513.173462 1062.714966,515.417175 1066.812500,521.572571 
	C1067.379395,522.424255 1068.380493,523.635193 1069.140015,523.606506 
	C1074.682739,523.397339 1080.215088,522.913635 1085.982666,522.500000 
	C1084.175049,512.161438 1078.539429,505.477356 1069.315918,503.241638 
	C1062.198853,501.516541 1054.564697,501.924622 1046.308838,501.617432 
M395.006653,551.500000 
	C395.006653,532.605347 395.006653,513.710632 395.006653,494.324341 
	C405.391663,494.324341 414.983154,494.324341 424.532074,494.324341 
	C424.532074,488.571594 424.532074,483.326904 424.532074,477.854004 
	C397.959167,477.854004 371.702484,477.854004 345.329712,477.854004 
	C345.329712,483.442108 345.329712,488.815430 345.329712,494.734406 
	C355.228119,494.734406 364.801300,494.734406 374.980042,494.734406 
	C374.980042,521.639221 374.980042,548.001160 374.980042,574.344849 
	C381.999786,574.344849 388.384827,574.344849 395.006653,574.344849 
	C395.006653,566.805603 395.006653,559.652832 395.006653,551.500000 
M121.018097,525.619202 
	C122.236015,525.130737 123.428802,524.563354 124.675835,524.166321 
	C134.257004,521.116028 137.528412,516.693909 137.578354,506.619476 
	C137.595688,503.122833 137.556107,499.625824 137.586899,496.129364 
	C137.704285,482.798737 140.833450,482.288300 150.134399,480.982086 
	C150.383102,480.947174 150.587051,480.593689 150.725464,480.467499 
	C150.725464,475.783386 150.725464,471.183746 150.725464,465.653137 
	C144.810150,466.463562 139.187546,466.827393 133.766052,468.069183 
	C125.025558,470.071167 120.066124,476.052948 118.965088,484.824036 
	C118.263847,490.410248 118.249786,496.098541 118.175919,501.744324 
	C118.027290,513.105591 115.892723,515.595703 104.537895,517.157410 
	C104.278358,517.193115 104.061989,517.542786 103.801086,517.766968 
	C103.801086,523.383301 103.801086,529.007324 103.801086,534.855957 
	C104.736778,535.012695 105.527023,535.145691 106.317497,535.277283 
	C115.657593,536.832458 118.003380,539.591736 118.137184,549.272827 
	C118.199303,553.767578 118.008850,558.273621 118.258957,562.756287 
	C118.771988,571.952026 121.659767,580.159607 131.209869,583.270752 
	C137.348068,585.270386 144.014587,585.648254 150.768097,586.808716 
	C150.768097,580.717468 150.768097,575.958374 150.768097,571.232300 
	C139.688217,569.801819 137.870728,567.812378 137.598358,556.945435 
	C137.535782,554.449341 137.581604,551.950378 137.581482,549.452759 
	C137.580704,534.467773 136.297897,532.634338 122.124741,527.278992 
	C121.688309,527.114075 121.342758,526.708679 121.018097,525.619202 
M451.944122,583.603760 
	C460.617889,580.262024 464.389618,573.444458 464.973602,564.645081 
	C465.381256,558.502747 464.964661,552.295959 465.543915,546.177368 
	C466.215973,539.079285 468.850616,536.694580 475.846252,535.449768 
	C477.120117,535.223145 478.398590,535.022217 479.671692,534.809937 
	C479.671692,528.795898 479.671692,523.020264 479.671692,517.284973 
	C467.795929,515.772339 465.318756,512.974243 465.170258,501.157990 
	C465.111633,496.492798 465.318939,491.807404 464.952881,487.166901 
	C464.406372,480.239410 461.963013,474.088806 455.574341,470.458405 
	C448.545502,466.464142 440.790497,466.175110 432.687073,466.199921 
	C432.687073,471.323853 432.687073,475.937775 432.687073,480.741516 
	C433.491119,480.924286 434.274902,481.124756 435.067627,481.279205 
	C443.847321,482.989929 445.792053,485.281769 445.965729,494.402405 
	C446.054535,499.067139 446.045441,503.735596 445.979950,508.400970 
	C445.879059,515.586914 449.214996,520.424133 455.825165,523.058655 
	C458.178589,523.996582 460.576721,524.822571 464.324677,526.205078 
	C461.398315,527.185730 459.894073,527.698303 458.384399,528.194397 
	C449.328339,531.170044 446.028290,535.680054 445.989929,545.109741 
	C445.969574,550.108704 446.133667,555.119690 445.841736,560.103455 
	C445.434937,567.048279 442.989868,569.590942 436.275299,570.759949 
	C435.142670,570.957153 433.997559,571.082458 432.710388,571.261536 
	C432.710388,576.164917 432.710388,580.919495 432.710388,586.706055 
	C439.158112,585.724792 445.184906,584.807556 451.944122,583.603760 
M1100.267944,503.868622 
	C1100.267944,527.410217 1100.267944,550.951782 1100.267944,574.516846 
	C1107.413330,574.516846 1113.686890,574.516846 1120.263428,574.516846 
	C1120.263428,550.260925 1120.263428,526.246521 1120.263428,501.423798 
	C1113.381226,501.950897 1106.886963,502.448273 1100.267944,503.868622 
M1104.526001,473.787903 
	C1099.470703,477.952271 1098.174683,483.240662 1101.145874,487.580475 
	C1104.348267,492.257935 1110.708008,493.861420 1115.675903,491.243896 
	C1120.372803,488.769196 1122.551514,483.240448 1120.647461,478.627319 
	C1118.453247,473.310883 1112.621582,470.896606 1106.546997,472.801331 
	C1106.075684,472.949097 1105.630859,473.181213 1104.526001,473.787903 
z"/>
<path fill="#080808" opacity="1.000000" stroke="none" 
	d="
M905.305664,1120.741089 
	C902.166077,1109.665039 899.149719,1098.974976 895.902771,1087.467651 
	C898.588074,1087.467651 901.002075,1087.676270 903.364075,1087.414795 
	C906.302185,1087.089478 907.436401,1088.309326 908.040283,1091.076660 
	C909.917603,1099.679443 912.027466,1108.231689 914.080933,1116.795410 
	C914.340637,1117.878540 914.801880,1118.913452 915.492737,1120.898682 
	C918.586304,1109.251831 921.429626,1098.547241 924.239197,1087.969604 
	C924.765564,1087.777954 925.068726,1087.581665 925.380615,1087.566406 
	C933.915649,1087.151245 933.891479,1087.160767 936.056213,1095.488892 
	C938.142517,1103.515625 940.286377,1111.527222 943.450073,1119.736206 
	C946.025513,1109.130859 948.600891,1098.525391 951.225342,1087.718262 
	C954.789001,1087.718262 958.225342,1087.718262 962.354614,1087.718262 
	C957.751038,1103.832520 953.214661,1119.711548 948.621277,1135.790161 
	C945.315186,1135.790161 942.037964,1135.790161 938.525940,1135.790161 
	C935.533936,1125.561523 932.563904,1115.407959 929.182800,1103.849121 
	C925.796997,1115.304565 922.767456,1125.554688 919.716248,1135.877930 
	C916.405701,1135.877930 913.267212,1135.877930 909.808228,1135.877930 
	C908.346741,1130.955322 906.887756,1126.041138 905.305664,1120.741089 
z"/>
<path fill="#050505" opacity="1.000000" stroke="none" 
	d="
M1061.822266,1124.986328 
	C1061.822266,1112.367432 1061.822266,1100.247070 1061.822266,1087.136719 
	C1070.337891,1087.549805 1078.666748,1087.226196 1086.722290,1088.556885 
	C1094.242310,1089.799072 1099.069336,1095.195435 1101.395020,1102.639160 
	C1106.446899,1118.809692 1098.576660,1133.240845 1083.239624,1135.707886 
	C1081.771240,1135.943970 1080.260376,1135.984741 1078.768555,1135.993530 
	C1073.308838,1136.025879 1067.848755,1136.006348 1061.822266,1136.006348 
	C1061.822266,1132.330322 1061.822266,1128.907715 1061.822266,1124.986328 
M1081.627075,1096.451782 
	C1078.534302,1096.451782 1075.441406,1096.451782 1072.004883,1096.451782 
	C1072.004883,1101.658203 1072.005005,1106.618530 1072.005005,1111.578857 
	C1072.005005,1116.675781 1072.004883,1121.772705 1072.004883,1127.065186 
	C1074.544067,1127.065186 1076.520630,1127.082642 1078.497070,1127.062012 
	C1086.694336,1126.976440 1091.102295,1123.429443 1092.044922,1116.175781 
	C1093.524048,1104.795776 1090.705200,1099.081299 1081.627075,1096.451782 
z"/>
<path fill="#060606" opacity="1.000000" stroke="none" 
	d="
M1300.148926,1100.896118 
	C1309.115112,1097.126465 1317.488892,1100.384277 1319.765747,1109.266602 
	C1321.069336,1114.351807 1320.861206,1120.116577 1320.067627,1125.384766 
	C1318.552368,1135.444580 1304.928833,1141.464722 1295.939697,1130.845337 
	C1295.939697,1134.385132 1295.939575,1137.282104 1295.939575,1140.179199 
	C1295.939575,1143.151245 1295.939697,1146.123169 1295.939697,1149.402588 
	C1292.577759,1149.402588 1289.517822,1149.402588 1286.134766,1149.402588 
	C1286.134766,1132.966187 1286.134766,1116.585693 1286.134766,1099.943115 
	C1289.188843,1099.943115 1292.280273,1099.943115 1295.585815,1099.943115 
	C1295.738525,1101.462524 1295.884644,1102.916992 1296.077515,1104.835693 
	C1297.462524,1103.454590 1298.642334,1102.278076 1300.148926,1100.896118 
M1301.180176,1107.400513 
	C1295.388550,1110.854248 1293.679077,1121.052734 1298.088989,1126.042725 
	C1300.507080,1128.779053 1303.509644,1129.211914 1306.653564,1127.623657 
	C1310.102417,1125.881592 1311.935791,1119.436157 1310.632080,1114.144409 
	C1309.521118,1109.636230 1307.108765,1106.648438 1301.180176,1107.400513 
z"/>
<path fill="#050505" opacity="1.000000" stroke="none" 
	d="
M1003.921753,1133.811523 
	C1003.919250,1118.214844 1003.919250,1103.099854 1003.919250,1087.733032 
	C1007.346252,1087.733032 1010.432495,1087.733032 1013.816772,1087.733032 
	C1013.816772,1093.306396 1013.816772,1098.742920 1013.816772,1104.745728 
	C1016.082886,1102.945435 1017.726135,1101.129028 1019.767883,1100.114746 
	C1025.639282,1097.197754 1033.495728,1100.013672 1036.745972,1106.381836 
	C1040.428955,1113.597656 1040.191040,1121.041138 1037.113892,1128.520752 
	C1033.463257,1137.394287 1019.904419,1139.712646 1014.352112,1130.689819 
	C1014.079102,1132.714111 1013.881042,1134.182861 1013.538879,1136.720093 
	C1010.253235,1135.890747 1007.088806,1135.091919 1003.921753,1133.811523 
M1015.776794,1125.441162 
	C1020.795410,1130.362549 1026.555786,1129.311401 1028.143555,1122.687012 
	C1028.982422,1119.186646 1028.765259,1115.005005 1027.606445,1111.615967 
	C1026.921753,1109.613281 1023.450745,1107.379517 1021.263184,1107.410400 
	C1019.109375,1107.440674 1015.538391,1109.910034 1015.160278,1111.818604 
	C1014.334900,1115.985596 1015.141418,1120.475830 1015.776794,1125.441162 
z"/>
<path fill="#101010" opacity="1.000000" stroke="none" 
	d="
M562.125916,1103.004639 
	C562.125916,1097.699097 562.125916,1092.892334 562.125916,1087.762939 
	C572.816284,1087.762939 583.226624,1087.762939 593.994629,1087.762939 
	C593.994629,1090.225220 593.994629,1092.791626 593.994629,1095.896240 
	C586.988586,1095.896240 579.947571,1095.896240 572.741028,1095.896240 
	C572.741028,1099.854126 572.741028,1103.284302 572.741028,1107.170776 
	C579.091736,1107.170776 585.330933,1107.170776 591.886841,1107.170776 
	C591.886841,1110.204590 591.886841,1112.789062 591.886841,1115.921631 
	C585.579529,1115.921631 579.211121,1115.921631 572.455078,1115.921631 
	C572.455078,1122.882324 572.455078,1129.306396 572.455078,1135.873779 
	C568.938538,1135.873779 565.822021,1135.873779 562.125916,1135.873779 
	C562.125916,1125.001099 562.125916,1114.252197 562.125916,1103.004639 
z"/>
<path fill="#080808" opacity="1.000000" stroke="none" 
	d="
M980.140808,1129.038696 
	C982.125671,1128.633301 984.346680,1128.728760 985.161499,1127.704956 
	C988.511047,1123.496338 992.458862,1125.237061 996.389954,1125.693237 
	C996.155823,1133.539062 985.054382,1138.460693 975.299805,1136.125366 
	C965.966492,1133.890625 960.806396,1124.961792 962.733704,1113.877808 
	C964.491882,1103.766357 972.487610,1097.781494 982.398193,1099.158813 
	C992.632935,1100.580933 997.820068,1108.035400 996.750549,1120.289185 
	C988.893250,1120.289185 980.981079,1120.289185 972.804321,1120.289185 
	C972.422974,1125.807007 974.952576,1128.317749 980.140808,1129.038696 
M979.519653,1114.069214 
	C982.098083,1114.069214 984.676453,1114.069214 987.340332,1114.069214 
	C986.289062,1108.463989 983.773621,1106.238770 979.317749,1106.800415 
	C975.290222,1107.307861 972.760559,1109.382568 972.828003,1114.069214 
	C974.919617,1114.069214 976.741455,1114.069214 979.519653,1114.069214 
z"/>
<path fill="#080808" opacity="1.000000" stroke="none" 
	d="
M1219.899170,1113.456909 
	C1219.952881,1115.863892 1219.952881,1117.845093 1219.952881,1120.275391 
	C1211.902222,1120.275391 1203.993164,1120.275391 1196.084106,1120.275391 
	C1195.692505,1120.672974 1195.300903,1121.070435 1194.909302,1121.468018 
	C1196.410400,1123.661743 1197.470215,1126.932861 1199.525024,1127.774292 
	C1202.049805,1128.808472 1206.561768,1129.011353 1208.171143,1127.457275 
	C1212.004517,1123.755493 1215.598511,1125.295288 1219.520630,1125.691162 
	C1218.788452,1133.542847 1208.925293,1137.738892 1200.657837,1136.536621 
	C1190.804321,1135.103638 1185.139771,1128.161743 1185.278320,1117.709595 
	C1185.410156,1107.754761 1191.133301,1100.589233 1200.055298,1099.208008 
	C1209.769409,1097.704224 1216.790527,1102.608276 1219.899170,1113.456909 
M1203.427612,1106.718750 
	C1198.835327,1106.871704 1196.109253,1108.959473 1195.617432,1113.746582 
	C1200.792603,1113.746582 1205.519043,1113.746582 1210.522827,1113.746582 
	C1210.032959,1109.603882 1208.084229,1107.364258 1203.427612,1106.718750 
z"/>
<path fill="#080808" opacity="1.000000" stroke="none" 
	d="
M1129.401123,1099.252686 
	C1140.082153,1102.200684 1144.398071,1109.049927 1142.767456,1120.323853 
	C1138.864746,1120.323853 1134.899292,1120.323853 1130.933838,1120.323853 
	C1127.124634,1120.323853 1123.315308,1120.323853 1117.737793,1120.323853 
	C1119.465698,1123.395386 1120.222778,1126.768677 1122.038208,1127.494385 
	C1124.779053,1128.590088 1129.553955,1129.171265 1131.164673,1127.605469 
	C1134.962524,1123.913452 1138.636230,1125.390381 1143.441284,1125.556763 
	C1142.265991,1127.740723 1141.649902,1129.632812 1140.441040,1131.001465 
	C1135.518677,1136.574219 1129.120972,1137.457642 1122.204224,1136.192139 
	C1115.710571,1135.004028 1111.285645,1131.203735 1109.618164,1124.870361 
	C1105.583008,1109.543823 1114.081055,1097.544556 1129.401123,1099.252686 
M1119.650513,1110.562256 
	C1119.364014,1111.607788 1119.077637,1112.653442 1118.790283,1113.702515 
	C1124.010132,1113.702515 1128.854736,1113.702515 1133.783325,1113.702515 
	C1131.590088,1105.862061 1125.904785,1104.395752 1119.650513,1110.562256 
z"/>
<path fill="#080807" opacity="1.000000" stroke="none" 
	d="
M657.979980,1120.291260 
	C650.126587,1120.316650 642.688599,1120.316650 635.250549,1120.316650 
	C634.878296,1120.716064 634.505981,1121.115479 634.133728,1121.514771 
	C635.678589,1123.729492 636.772888,1126.921875 638.888916,1127.897339 
	C641.226990,1128.974976 645.686646,1129.191406 647.135864,1127.723267 
	C650.822754,1123.988892 654.592957,1125.334961 659.496887,1125.486084 
	C658.209473,1127.808838 657.535217,1129.869385 656.191589,1131.302490 
	C650.503174,1137.369385 643.294739,1137.844604 635.945435,1135.600708 
	C629.274780,1133.563843 625.746826,1128.416870 624.945984,1121.548218 
	C623.100830,1105.723755 634.196960,1095.556519 648.351135,1100.023438 
	C656.588440,1102.623291 661.215698,1111.948486 657.979980,1120.291260 
M649.068176,1110.632324 
	C646.991760,1106.682983 643.392273,1105.754272 639.783875,1107.292236 
	C637.539673,1108.248779 636.033936,1110.937988 634.196777,1112.849487 
	C634.555969,1113.255737 634.915222,1113.661987 635.274414,1114.068237 
	C639.413269,1114.068237 643.558350,1114.179321 647.684265,1113.948364 
	C648.299927,1113.913696 648.825562,1112.272339 649.068176,1110.632324 
z"/>
<path fill="#080808" opacity="1.000000" stroke="none" 
	d="
M675.129150,1124.115112 
	C679.385010,1130.158325 683.587646,1130.328247 689.104797,1126.447998 
	C691.405396,1124.829712 695.161438,1125.280884 698.486145,1124.754761 
	C697.427734,1133.078247 689.869202,1137.705566 680.361084,1136.613770 
	C669.247620,1135.337646 663.272278,1126.975708 664.778931,1114.808105 
	C666.086548,1104.247559 674.249634,1097.810059 684.628784,1099.154297 
	C694.703125,1100.458984 700.101440,1108.343750 698.774780,1120.324707 
	C691.879517,1120.324707 684.925476,1120.408936 677.975342,1120.281372 
	C675.347046,1120.233154 674.153198,1120.946899 675.129150,1124.115112 
M684.893555,1107.032715 
	C677.919922,1106.398804 675.393555,1108.189697 675.276733,1113.853027 
	C680.033325,1113.853027 684.789856,1113.853027 691.204041,1113.853027 
	C688.825928,1111.047974 687.241028,1109.178589 684.893555,1107.032715 
z"/>
<path fill="#080808" opacity="1.000000" stroke="none" 
	d="
M1350.946289,1120.323853 
	C1346.008911,1120.323853 1341.561157,1120.323853 1337.113525,1120.323853 
	C1336.744629,1120.736084 1336.375732,1121.148315 1336.006836,1121.560547 
	C1337.562744,1123.750000 1338.678589,1126.912109 1340.792480,1127.868652 
	C1343.136230,1128.929199 1347.541748,1129.136230 1349.023438,1127.668945 
	C1352.698975,1124.029053 1356.459106,1125.265381 1360.419800,1125.501953 
	C1359.331055,1133.175049 1351.331543,1137.868652 1341.786865,1136.534790 
	C1330.950317,1135.020630 1325.192993,1126.665894 1326.782349,1114.761230 
	C1328.202271,1104.125244 1336.268066,1097.791992 1346.655640,1099.156250 
	C1356.718750,1100.477905 1362.130371,1108.409668 1360.766357,1120.323853 
	C1357.691406,1120.323853 1354.563721,1120.323853 1350.946289,1120.323853 
M1348.079468,1114.069214 
	C1349.286011,1113.961670 1350.492432,1113.854126 1351.763306,1113.740845 
	C1350.106445,1108.037598 1347.531982,1106.055664 1342.899414,1106.858276 
	C1339.083740,1107.519165 1336.861084,1109.676514 1337.013672,1114.069214 
	C1340.573730,1114.069214 1343.875854,1114.069214 1348.079468,1114.069214 
z"/>
<path fill="#080807" opacity="1.000000" stroke="none" 
	d="
M869.373047,1134.583374 
	C853.914917,1140.509155 841.888245,1133.013062 841.914185,1117.877563 
	C841.934204,1106.191650 849.401184,1098.585693 860.386230,1099.062012 
	C871.251587,1099.532959 877.586731,1107.753906 876.343750,1120.217529 
	C868.458191,1120.217529 860.519287,1120.217529 850.720825,1120.217529 
	C852.697998,1123.438232 853.556824,1126.651001 855.468323,1127.503662 
	C858.005432,1128.635376 862.486267,1129.202271 864.142639,1127.747192 
	C867.896118,1124.449951 871.542175,1125.017700 875.964111,1125.570068 
	C875.656006,1129.922363 873.080627,1132.421143 869.373047,1134.583374 
M853.227173,1109.889526 
	C852.791321,1111.152344 852.355530,1112.415039 851.868713,1113.825684 
	C857.316528,1113.825684 862.067688,1113.825684 866.855713,1113.825684 
	C865.566895,1106.408569 860.043884,1104.586304 853.227173,1109.889526 
z"/>
<path fill="#080808" opacity="1.000000" stroke="none" 
	d="
M723.995239,1109.262451 
	C726.169006,1098.292725 743.112061,1096.031982 751.133240,1102.869751 
	C753.067078,1104.518188 754.618469,1107.651001 754.752808,1110.185547 
	C755.199646,1118.623047 754.921936,1127.098999 754.921936,1135.784058 
	C751.788818,1135.784058 749.010742,1135.784058 745.803223,1135.784058 
	C745.515076,1134.762817 745.162720,1133.514160 745.185791,1133.596069 
	C740.747742,1134.620117 736.583191,1136.395996 732.441467,1136.344482 
	C726.326050,1136.268433 722.688049,1132.193115 722.284546,1126.726318 
	C721.861206,1120.990845 725.029358,1116.818726 731.243225,1115.358032 
	C734.148865,1114.674927 737.254700,1114.769287 740.101013,1113.935303 
	C741.831604,1113.428345 743.240295,1111.822510 744.793518,1110.710327 
	C743.022827,1109.320068 741.393921,1107.643433 739.418823,1106.666260 
	C738.494995,1106.209106 736.321350,1106.659668 735.709961,1107.459717 
	C732.389954,1111.804199 728.182007,1110.301514 723.995239,1109.262451 
M743.064514,1127.398560 
	C743.852112,1124.879395 744.639709,1122.360107 745.574707,1119.369263 
	C742.052124,1120.015625 739.617676,1120.452271 737.187378,1120.910889 
	C734.213379,1121.471802 731.317932,1122.621826 732.159668,1126.225952 
	C733.014526,1129.886353 736.247070,1130.068604 739.376526,1129.357422 
	C740.468811,1129.109131 741.461975,1128.424316 743.064514,1127.398560 
z"/>
<path fill="#070707" opacity="1.000000" stroke="none" 
	d="
M1272.942261,1102.969482 
	C1279.455200,1108.943115 1280.270874,1116.230957 1278.455688,1123.833984 
	C1276.200439,1133.280151 1267.760376,1138.118896 1257.735229,1136.319336 
	C1248.343140,1134.633301 1242.635254,1126.859131 1243.350098,1116.726685 
	C1244.460327,1100.987183 1258.754272,1094.160400 1272.942261,1102.969482 
M1257.696167,1107.896851 
	C1253.540039,1112.256836 1252.124146,1119.993896 1255.299072,1124.792480 
	C1256.565674,1126.706787 1259.452393,1128.668701 1261.539795,1128.604370 
	C1263.613892,1128.540527 1266.753052,1126.334473 1267.390015,1124.398193 
	C1268.520630,1120.961182 1268.824829,1116.890869 1268.186401,1113.315674 
	C1267.159180,1107.562866 1264.433105,1106.312378 1257.696167,1107.896851 
z"/>
<path fill="#050505" opacity="1.000000" stroke="none" 
	d="
M762.822144,1104.237671 
	C762.909668,1102.501465 762.997192,1101.235596 763.093628,1099.840210 
	C766.180847,1099.840210 768.959351,1099.840210 772.050964,1099.840210 
	C772.240906,1101.323608 772.419556,1102.718994 772.520874,1103.510376 
	C775.998108,1101.994751 779.233337,1099.770630 782.728149,1099.232666 
	C789.719910,1098.156372 795.609741,1103.102905 795.949158,1110.249878 
	C796.348999,1118.668579 796.042969,1127.120728 796.042969,1135.781860 
	C792.741638,1135.781860 789.662292,1135.781860 786.061829,1135.781860 
	C786.061829,1128.933838 786.093201,1122.172607 786.051819,1115.411987 
	C786.019470,1110.130371 784.030823,1107.652344 779.875610,1107.543579 
	C775.529236,1107.429810 772.987732,1110.117432 772.892700,1115.322876 
	C772.771606,1121.959839 772.863342,1128.600708 772.863342,1135.623413 
	C769.642700,1135.623413 766.586853,1135.623413 762.822144,1135.623413 
	C762.822144,1125.485107 762.822144,1115.096558 762.822144,1104.237671 
z"/>
<path fill="#070707" opacity="1.000000" stroke="none" 
	d="
M823.950745,1107.823242 
	C817.996826,1106.464600 814.475098,1108.122681 813.640808,1113.436035 
	C813.074463,1117.042847 813.347229,1121.145752 814.541748,1124.574829 
	C816.121826,1129.110962 822.888245,1130.483643 825.076721,1126.678589 
	C828.095276,1121.430420 832.212952,1122.795898 836.425232,1122.814087 
	C836.180115,1131.251587 830.166382,1136.617188 820.993286,1136.717773 
	C810.839111,1136.829224 803.714600,1130.505859 802.916260,1120.673584 
	C801.946411,1108.729126 807.712891,1100.474121 817.942444,1099.162964 
	C828.074402,1097.864380 834.983582,1102.705566 836.826965,1112.681885 
	C833.903870,1112.681885 831.010559,1112.681885 827.880127,1112.681885 
	C826.827637,1111.294678 825.571167,1109.638672 823.950745,1107.823242 
z"/>
<path fill="#060606" opacity="1.000000" stroke="none" 
	d="
M1158.388184,1134.964233 
	C1154.257690,1123.188477 1150.312988,1111.788818 1146.234253,1100.001831 
	C1149.802124,1100.001831 1153.052612,1100.001831 1156.765015,1100.001831 
	C1159.171265,1108.122437 1161.648926,1116.484009 1164.448364,1125.931885 
	C1167.242065,1116.479858 1169.711914,1108.123413 1172.165894,1099.821045 
	C1175.628540,1099.821045 1178.763916,1099.821045 1182.723389,1099.821045 
	C1178.452759,1112.095825 1174.312378,1123.996582 1170.033447,1136.295410 
	C1166.039917,1135.962524 1162.307007,1135.651489 1158.388184,1134.964233 
z"/>
<path fill="#101010" opacity="1.000000" stroke="none" 
	d="
M600.436096,1116.004639 
	C600.436096,1110.390137 600.436096,1105.273926 600.436096,1099.909912 
	C603.802490,1099.909912 606.734619,1099.909912 609.901001,1099.909912 
	C610.192017,1101.011475 610.508728,1102.210449 610.616394,1102.618042 
	C614.375061,1101.104858 617.981812,1099.652954 622.412598,1097.869141 
	C622.412598,1102.144775 622.412598,1104.880005 622.412598,1107.963989 
	C621.077454,1107.963989 619.795227,1107.928833 618.515503,1107.970215 
	C613.462830,1108.133667 610.899719,1110.557739 610.794189,1115.679565 
	C610.657898,1122.294556 610.760925,1128.914551 610.760925,1135.777100 
	C607.240601,1135.777100 604.141541,1135.777100 600.436096,1135.777100 
	C600.436096,1129.370361 600.436096,1122.936768 600.436096,1116.004639 
z"/>
<path fill="#080808" opacity="1.000000" stroke="none" 
	d="
M1236.851074,1117.998901 
	C1236.851074,1124.122192 1236.851074,1129.745850 1236.851074,1135.689453 
	C1233.540283,1135.689453 1230.480957,1135.689453 1227.113892,1135.689453 
	C1227.113892,1119.916748 1227.113892,1104.059082 1227.113892,1087.833618 
	C1230.097534,1087.833618 1233.139160,1087.833618 1236.851074,1087.833618 
	C1236.851074,1097.724487 1236.851074,1107.611816 1236.851074,1117.998901 
z"/>
<path fill="#030302" opacity="1.000000" stroke="none" 
	d="
M706.056519,1088.508911 
	C709.248596,1087.808472 712.328979,1087.551636 715.718872,1087.268921 
	C715.718872,1103.723022 715.718872,1119.614014 715.718872,1135.754395 
	C712.628235,1135.754395 709.551025,1135.754395 705.944885,1135.754395 
	C705.944885,1120.145020 705.944885,1104.548706 706.056519,1088.508911 
z"/>
<path fill="#050505" opacity="1.000000" stroke="none" 
	d="
M1385.465454,1099.092773 
	C1393.791626,1098.985107 1388.148926,1104.844727 1390.501465,1107.938477 
	C1388.354248,1107.938477 1387.084595,1107.905518 1385.817017,1107.944092 
	C1380.815796,1108.096558 1378.103271,1110.597534 1377.991333,1115.590088 
	C1377.843140,1122.204102 1377.954834,1128.824097 1377.954834,1135.722900 
	C1374.598511,1135.722900 1371.536133,1135.722900 1368.191895,1135.722900 
	C1368.191895,1123.872925 1368.191895,1111.997803 1368.191895,1099.546753 
	C1371.554077,1101.117432 1376.995850,1096.297485 1378.130127,1103.444336 
	C1380.316772,1102.081909 1382.683350,1100.607422 1385.465454,1099.092773 
z"/>
<path fill="#FFFDFC" opacity="1.000000" stroke="none" 
	d="
M537.876099,549.264954 
	C531.189331,525.850525 524.598694,502.828918 518.028015,479.801666 
	C517.901794,479.359192 518.012268,478.849213 518.012268,477.994812 
	C525.100708,477.994812 532.168701,477.994812 539.830750,477.994812 
	C545.085266,499.947754 550.405090,522.173401 555.724915,544.399048 
	C556.052246,544.409058 556.379639,544.419006 556.706970,544.429016 
	C562.554504,522.268127 568.402100,500.107208 574.271790,477.862335 
	C580.805298,477.862335 587.075562,477.862335 593.573059,477.862335 
	C599.434387,500.195129 605.251221,522.358276 611.068054,544.521423 
	C611.404541,544.563660 611.741028,544.605835 612.077454,544.648071 
	C617.398987,522.393494 622.720520,500.138947 628.047974,477.859558 
	C635.511292,477.859558 642.597717,477.859558 650.450867,477.859558 
	C641.150818,510.338287 631.972229,542.393066 622.713074,574.729065 
	C616.798218,574.729065 611.129639,574.994202 605.518738,574.542297 
	C604.119385,574.429626 602.201904,572.217102 601.715576,570.608948 
	C596.327393,552.791443 591.179199,534.901367 585.949829,517.035706 
	C585.455078,515.345398 584.848755,513.687622 583.329468,512.043640 
	C579.590149,524.845764 575.850708,537.647766 572.111755,550.449951 
	C570.107483,557.312744 567.949280,564.136108 566.176636,571.058289 
	C565.468384,573.824097 564.329224,574.904358 561.435303,574.791565 
	C556.122253,574.584534 550.795410,574.732483 545.154175,574.732483 
	C542.728271,566.259888 540.351318,557.958557 537.876099,549.264954 
z"/>
<path fill="#FFFEFD" opacity="1.000000" stroke="none" 
	d="
M930.847412,530.730957 
	C929.337830,546.679260 924.003052,560.141113 909.716187,568.107483 
	C904.875854,570.806396 899.260010,573.336792 893.879822,573.610596 
	C879.150818,574.360229 864.358582,573.868958 849.291565,573.868958 
	C849.291565,542.219238 849.291565,510.164795 849.291565,478.397430 
	C864.305664,478.397430 879.446411,476.854889 894.142151,478.754700 
	C916.856873,481.691162 930.116577,498.849854 930.911133,522.772827 
	C930.993958,525.266907 930.881592,527.767456 930.847412,530.730957 
M871.905212,495.069550 
	C868.142212,495.142151 869.493225,498.053833 869.482849,499.853760 
	C869.386292,516.659607 869.425598,533.466248 869.425598,550.272644 
	C869.425598,552.392578 869.425598,554.512512 869.425598,556.817139 
	C875.967163,556.817139 881.975464,557.290283 887.881897,556.715942 
	C899.187378,555.616516 906.834412,549.647583 908.717102,539.118774 
	C910.096558,531.404358 910.389954,523.157593 909.287781,515.415710 
	C907.579773,503.418549 900.841553,497.520294 888.748291,495.739288 
	C883.522827,494.969727 878.141724,495.257385 871.905212,495.069550 
z"/>
<path fill="#FFFDFC" opacity="1.000000" stroke="none" 
	d="
M1205.004761,519.001404 
	C1205.004761,536.989929 1204.482178,554.498474 1205.143921,571.962158 
	C1205.885742,591.541870 1194.080322,599.963562 1180.044922,602.433594 
	C1170.068237,604.189270 1160.098389,604.062439 1150.629028,599.892273 
	C1143.438843,596.725830 1138.291260,591.579041 1136.313232,583.219727 
	C1141.561035,582.468079 1146.606934,581.554260 1151.693726,581.137939 
	C1153.141235,581.019470 1155.130371,581.961487 1156.148926,583.076660 
	C1161.959595,589.438232 1172.861450,591.326965 1179.708008,586.083252 
	C1182.270996,584.120300 1184.172119,580.284058 1184.771484,577.008545 
	C1185.621216,572.365601 1184.987183,567.451111 1184.987183,561.585449 
	C1180.751099,567.445435 1176.386475,571.717712 1169.846313,573.000183 
	C1153.709229,576.164429 1139.895508,568.005554 1135.773804,552.086975 
	C1132.425537,539.154602 1132.819702,526.284851 1139.743530,514.355042 
	C1146.129639,503.351532 1159.488770,497.765656 1171.085327,502.236694 
	C1176.287598,504.242340 1180.465454,508.904663 1184.816162,512.144104 
	C1184.816162,509.774170 1184.816162,506.220917 1184.816162,502.297852 
	C1191.572266,502.297852 1197.962402,502.297852 1205.004761,502.297852 
	C1205.004761,507.638000 1205.004761,513.069824 1205.004761,519.001404 
M1184.385010,530.466309 
	C1184.130981,529.503052 1183.953857,528.511353 1183.610474,527.581055 
	C1180.963867,520.408203 1176.301758,516.904968 1169.593750,517.001160 
	C1163.013428,517.095581 1157.484375,520.742798 1156.229248,528.161133 
	C1155.100464,534.833862 1155.345459,542.028931 1156.532715,548.718872 
	C1157.635376,554.931519 1162.878174,558.020264 1168.989380,558.264771 
	C1175.786377,558.536560 1180.887085,556.192017 1182.694092,549.834717 
	C1184.368042,543.945618 1184.059204,537.493042 1184.385010,530.466309 
z"/>
<path fill="#FFFDFB" opacity="1.000000" stroke="none" 
	d="
M221.842010,553.725342 
	C214.246323,553.070557 206.815140,552.678772 199.380951,552.610413 
	C186.633163,552.493164 186.632385,552.578003 182.664856,564.442627 
	C179.223145,574.734802 179.223129,574.734802 168.179718,574.734802 
	C164.870087,574.734802 161.560455,574.734802 157.895309,574.734802 
	C158.056213,573.461426 158.015900,572.488831 158.311005,571.631714 
	C168.691010,541.485107 179.130112,511.358673 189.459961,481.194885 
	C190.335556,478.638123 191.408005,477.432678 194.337601,477.541931 
	C200.820374,477.783722 207.326355,477.445435 213.804230,477.745636 
	C215.306488,477.815277 217.613037,479.186493 218.067184,480.479431 
	C228.741699,510.870331 239.215683,541.331604 249.702286,571.788391 
	C249.955093,572.522583 249.931870,573.351807 250.116196,574.722839 
	C243.503708,574.722839 237.226318,574.870178 230.968781,574.584106 
	C229.869659,574.533875 228.346512,572.854065 227.885941,571.606750 
	C225.758087,565.844360 223.936508,559.968811 221.842010,553.725342 
M211.179932,536.595825 
	C212.733612,536.493469 214.287308,536.391174 216.315552,536.257568 
	C212.235123,523.813904 208.368591,512.022461 204.502075,500.231079 
	C204.140259,500.272980 203.778458,500.314880 203.416641,500.356781 
	C199.570374,512.220642 195.724091,524.084473 191.668015,536.595459 
	C198.377670,536.595459 204.313232,536.595459 211.179932,536.595825 
z"/>
<path fill="#FFFCFA" opacity="1.000000" stroke="none" 
	d="
M733.260803,556.998657 
	C733.260925,530.392395 733.260925,504.285706 733.260925,477.896912 
	C740.196350,477.896912 746.603149,477.896912 753.470215,477.896912 
	C753.470215,489.573914 753.470215,500.998352 753.470215,512.858765 
	C754.390625,512.382263 754.950562,512.286560 755.115356,511.979126 
	C763.938416,495.514557 789.255432,498.142792 797.987915,513.581360 
	C807.095093,529.682373 807.138916,546.504028 798.225220,562.641479 
	C791.290833,575.195679 774.567688,579.754761 763.172668,572.794739 
	C759.516968,570.561890 756.745728,566.880981 753.256165,563.564392 
	C753.256165,567.107483 753.256165,570.642090 753.256165,574.348267 
	C751.605591,574.513123 750.479370,574.715149 749.351807,574.722839 
	C744.221313,574.757874 739.090515,574.738220 733.260681,574.738220 
	C733.260681,568.699951 733.260681,563.099121 733.260803,556.998657 
M755.300842,526.082458 
	C752.178162,534.190430 752.259521,542.355896 755.282288,550.413818 
	C757.523743,556.389038 762.871277,559.995728 768.674438,559.802612 
	C775.038391,559.590759 779.330444,556.170410 781.548340,550.440918 
	C784.455811,542.929932 784.633179,535.209961 782.041992,527.520020 
	C780.088196,521.721802 776.425720,517.691772 770.056458,517.067688 
	C763.371521,516.412720 758.458374,519.152832 755.300842,526.082458 
z"/>
<path fill="#FFFDFB" opacity="1.000000" stroke="none" 
	d="
M332.072205,495.052856 
	C342.848389,519.377747 328.213165,542.635315 302.174652,543.059570 
	C296.030792,543.159668 289.883911,543.074341 283.209381,543.074341 
	C283.209381,553.510132 283.209381,563.736389 283.209381,574.345947 
	C276.137726,574.345947 269.583771,574.345947 262.643738,574.345947 
	C262.643738,542.313660 262.643738,510.293335 262.643738,477.616699 
	C265.440887,477.616699 268.221222,477.600098 271.001312,477.619568 
	C282.483368,477.700073 293.985016,477.404633 305.441895,477.986389 
	C317.171112,478.582001 326.409058,483.898468 332.072205,495.052856 
M282.928741,501.594025 
	C282.928741,509.864380 282.928741,518.134705 282.928741,527.187683 
	C289.982452,526.781067 296.486176,526.916687 302.807312,525.908142 
	C310.127441,524.740051 314.179138,518.652893 314.156281,510.510406 
	C314.133118,502.257568 310.178314,496.344208 302.760315,495.174072 
	C296.439606,494.177002 289.934753,494.347321 282.928711,493.969818 
	C282.928711,496.719177 282.928711,498.671448 282.928741,501.594025 
z"/>
<path fill="#FFFDFC" opacity="1.000000" stroke="none" 
	d="
M668.762817,504.627441 
	C685.612122,497.564545 702.968384,500.871674 712.350464,512.867371 
	C719.223572,521.655029 720.280090,531.974976 719.838379,543.317139 
	C703.449951,543.317139 687.237671,543.317139 671.130188,543.317139 
	C670.100220,550.713257 673.204651,556.626343 679.130676,559.391174 
	C685.664551,562.439636 694.872314,561.319763 698.411316,556.157532 
	C700.653687,552.886658 702.989197,552.548767 706.318237,552.905334 
	C710.415710,553.344360 714.549927,553.440979 719.235779,553.719238 
	C717.568542,562.162842 713.053284,567.874573 706.118286,571.345398 
	C692.361206,578.230530 678.286133,578.451843 665.194763,570.118530 
	C652.384888,561.964355 649.542297,548.785767 650.503113,534.653625 
	C651.377441,521.793396 656.680176,511.287903 668.762817,504.627441 
M671.373047,530.839966 
	C681.123047,530.839966 690.872986,530.839966 700.631653,530.839966 
	C700.280640,521.663452 694.770752,516.132751 686.253723,515.993286 
	C677.527527,515.850464 671.267944,521.655273 671.373047,530.839966 
z"/>
<path fill="#FFFDFC" opacity="1.000000" stroke="none" 
	d="
M973.325195,560.070740 
	C981.043396,561.905945 987.587158,561.231079 992.307617,554.407227 
	C992.857056,553.613098 994.097046,552.797791 994.992920,552.823608 
	C1000.441406,552.980835 1005.882996,553.378845 1013.277832,553.810303 
	C1009.794922,559.038757 1007.572693,563.440247 1004.384399,566.968872 
	C993.054077,579.508606 959.171143,581.273438 947.467346,559.220276 
	C938.090698,541.552063 942.663757,516.628906 958.062561,506.619171 
	C969.752258,499.020508 982.354065,498.824341 994.711609,504.732758 
	C1006.594360,510.414215 1011.150391,521.069824 1012.038269,533.601501 
	C1012.258240,536.706177 1012.071106,539.839661 1012.071106,543.440674 
	C995.564331,543.440674 979.484131,543.440674 963.478943,543.440674 
	C962.448792,551.345154 965.322083,556.188171 973.325195,560.070740 
M973.531250,530.940247 
	C979.967957,530.940247 986.404663,530.940247 992.813843,530.940247 
	C993.077881,522.165894 987.514709,516.284363 979.190735,515.995300 
	C969.991394,515.675781 963.351135,521.679993 963.196899,530.940247 
	C966.310059,530.940247 969.428528,530.940247 973.531250,530.940247 
z"/>
<path fill="#FFFDFC" opacity="1.000000" stroke="none" 
	d="
M1241.165283,554.999634 
	C1241.165405,561.653381 1241.165405,567.807312 1241.165405,574.730530 
	C1237.611450,574.730530 1234.355835,574.730530 1231.100220,574.730530 
	C1227.967285,574.730530 1224.834351,574.730530 1221.385742,574.730530 
	C1221.385742,550.387939 1221.385742,526.488403 1221.385742,502.255859 
	C1227.489990,502.255859 1233.571045,502.255859 1240.293457,502.255859 
	C1240.293457,505.711365 1240.293457,509.249756 1240.293457,514.211548 
	C1241.829712,512.374329 1242.435303,511.724060 1242.958374,511.013092 
	C1249.378906,502.284851 1259.006836,498.958771 1269.936646,501.708832 
	C1279.594727,504.138916 1287.149170,511.711792 1287.619873,522.253967 
	C1288.390747,539.515015 1287.828491,556.835632 1287.828491,574.429993 
	C1281.244141,574.429993 1274.848511,574.429993 1267.995239,574.429993 
	C1267.995239,564.713928 1268.003418,555.253052 1267.991943,545.792114 
	C1267.985596,540.459656 1268.191528,535.112122 1267.862549,529.798523 
	C1267.419067,522.637451 1262.889038,518.205322 1256.217407,517.834351 
	C1248.571167,517.409180 1242.828369,520.932800 1242.032959,528.083679 
	C1241.062134,536.813232 1241.395752,545.687927 1241.165283,554.999634 
z"/>
<path fill="#FFFDFB" opacity="1.000000" stroke="none" 
	d="
M1046.734619,501.500854 
	C1054.564697,501.924622 1062.198853,501.516541 1069.315918,503.241638 
	C1078.539429,505.477356 1084.175049,512.161438 1085.982666,522.500000 
	C1080.215088,522.913635 1074.682739,523.397339 1069.140015,523.606506 
	C1068.380493,523.635193 1067.379395,522.424255 1066.812500,521.572571 
	C1062.714966,515.417175 1054.981079,513.173462 1048.504761,516.863281 
	C1046.624878,517.934326 1044.515991,520.530640 1044.515625,522.428223 
	C1044.515259,524.303223 1046.685547,527.202148 1048.539185,527.859558 
	C1053.821167,529.732849 1059.440552,530.639160 1064.900024,532.032593 
	C1068.432739,532.934204 1072.060791,533.682617 1075.398926,535.087280 
	C1089.244385,540.913452 1092.026611,556.855042 1081.142700,567.225830 
	C1069.044067,578.754028 1041.958862,579.428528 1029.849731,567.939026 
	C1026.210571,564.486084 1024.150024,559.369385 1021.366272,555.014832 
	C1021.736328,554.516846 1022.106323,554.018799 1022.476379,553.520813 
	C1028.846069,553.190979 1035.215698,552.861084 1041.486450,552.536377 
	C1046.223511,560.636658 1052.581543,563.575378 1060.710083,560.615601 
	C1063.229248,559.698425 1066.021118,556.891479 1066.769531,554.378357 
	C1067.850952,550.747681 1064.468140,548.751099 1061.273926,547.937073 
	C1055.321045,546.420166 1049.260010,545.334473 1043.277222,543.927429 
	C1036.830688,542.411316 1030.854492,539.907654 1027.044312,534.108826 
	C1021.375977,525.482178 1023.690186,513.048889 1032.616333,507.175415 
	C1036.652100,504.519836 1041.713013,503.421997 1046.734619,501.500854 
z"/>
<path fill="#FFFDFC" opacity="1.000000" stroke="none" 
	d="
M395.006653,552.000000 
	C395.006653,559.652832 395.006653,566.805603 395.006653,574.344849 
	C388.384827,574.344849 381.999786,574.344849 374.980042,574.344849 
	C374.980042,548.001160 374.980042,521.639221 374.980042,494.734406 
	C364.801300,494.734406 355.228119,494.734406 345.329712,494.734406 
	C345.329712,488.815430 345.329712,483.442108 345.329712,477.854004 
	C371.702484,477.854004 397.959167,477.854004 424.532074,477.854004 
	C424.532074,483.326904 424.532074,488.571594 424.532074,494.324341 
	C414.983154,494.324341 405.391663,494.324341 395.006653,494.324341 
	C395.006653,513.710632 395.006653,532.605347 395.006653,552.000000 
z"/>
<path fill="#FFFCFB" opacity="1.000000" stroke="none" 
	d="
M120.986465,526.017334 
	C121.342758,526.708679 121.688309,527.114075 122.124741,527.278992 
	C136.297897,532.634338 137.580704,534.467773 137.581482,549.452759 
	C137.581604,551.950378 137.535782,554.449341 137.598358,556.945435 
	C137.870728,567.812378 139.688217,569.801819 150.768097,571.232300 
	C150.768097,575.958374 150.768097,580.717468 150.768097,586.808716 
	C144.014587,585.648254 137.348068,585.270386 131.209869,583.270752 
	C121.659767,580.159607 118.771988,571.952026 118.258957,562.756287 
	C118.008850,558.273621 118.199303,553.767578 118.137184,549.272827 
	C118.003380,539.591736 115.657593,536.832458 106.317497,535.277283 
	C105.527023,535.145691 104.736778,535.012695 103.801086,534.855957 
	C103.801086,529.007324 103.801086,523.383301 103.801086,517.766968 
	C104.061989,517.542786 104.278358,517.193115 104.537895,517.157410 
	C115.892723,515.595703 118.027290,513.105591 118.175919,501.744324 
	C118.249786,496.098541 118.263847,490.410248 118.965088,484.824036 
	C120.066124,476.052948 125.025558,470.071167 133.766052,468.069183 
	C139.187546,466.827393 144.810150,466.463562 150.725464,465.653137 
	C150.725464,471.183746 150.725464,475.783386 150.725464,480.467499 
	C150.587051,480.593689 150.383102,480.947174 150.134399,480.982086 
	C140.833450,482.288300 137.704285,482.798737 137.586899,496.129364 
	C137.556107,499.625824 137.595688,503.122833 137.578354,506.619476 
	C137.528412,516.693909 134.257004,521.116028 124.675835,524.166321 
	C123.428802,524.563354 122.236015,525.130737 120.986465,526.017334 
z"/>
<path fill="#FFFDFB" opacity="1.000000" stroke="none" 
	d="
M451.577942,583.747070 
	C445.184906,584.807556 439.158112,585.724792 432.710388,586.706055 
	C432.710388,580.919495 432.710388,576.164917 432.710388,571.261536 
	C433.997559,571.082458 435.142670,570.957153 436.275299,570.759949 
	C442.989868,569.590942 445.434937,567.048279 445.841736,560.103455 
	C446.133667,555.119690 445.969574,550.108704 445.989929,545.109741 
	C446.028290,535.680054 449.328339,531.170044 458.384399,528.194397 
	C459.894073,527.698303 461.398315,527.185730 464.324677,526.205078 
	C460.576721,524.822571 458.178589,523.996582 455.825165,523.058655 
	C449.214996,520.424133 445.879059,515.586914 445.979950,508.400970 
	C446.045441,503.735596 446.054535,499.067139 445.965729,494.402405 
	C445.792053,485.281769 443.847321,482.989929 435.067627,481.279205 
	C434.274902,481.124756 433.491119,480.924286 432.687073,480.741516 
	C432.687073,475.937775 432.687073,471.323853 432.687073,466.199921 
	C440.790497,466.175110 448.545502,466.464142 455.574341,470.458405 
	C461.963013,474.088806 464.406372,480.239410 464.952881,487.166901 
	C465.318939,491.807404 465.111633,496.492798 465.170258,501.157990 
	C465.318756,512.974243 467.795929,515.772339 479.671692,517.284973 
	C479.671692,523.020264 479.671692,528.795898 479.671692,534.809937 
	C478.398590,535.022217 477.120117,535.223145 475.846252,535.449768 
	C468.850616,536.694580 466.215973,539.079285 465.543915,546.177368 
	C464.964661,552.295959 465.381256,558.502747 464.973602,564.645081 
	C464.389618,573.444458 460.617889,580.262024 451.577942,583.747070 
z"/>
<path fill="#FEF8F5" opacity="1.000000" stroke="none" 
	d="
M1100.330322,503.407135 
	C1106.886963,502.448273 1113.381226,501.950897 1120.263428,501.423798 
	C1120.263428,526.246521 1120.263428,550.260925 1120.263428,574.516846 
	C1113.686890,574.516846 1107.413330,574.516846 1100.267944,574.516846 
	C1100.267944,550.951782 1100.267944,527.410217 1100.330322,503.407135 
z"/>
<path fill="#FFFCFA" opacity="1.000000" stroke="none" 
	d="
M1104.849854,473.581055 
	C1105.630859,473.181213 1106.075684,472.949097 1106.546997,472.801331 
	C1112.621582,470.896606 1118.453247,473.310883 1120.647461,478.627319 
	C1122.551514,483.240448 1120.372803,488.769196 1115.675903,491.243896 
	C1110.708008,493.861420 1104.348267,492.257935 1101.145874,487.580475 
	C1098.174683,483.240662 1099.470703,477.952271 1104.849854,473.581055 
z"/>
<path fill="#F5F4F0" opacity="1.000000" stroke="none" 
	d="
M1082.028076,1096.566650 
	C1090.705200,1099.081299 1093.524048,1104.795776 1092.044922,1116.175781 
	C1091.102295,1123.429443 1086.694336,1126.976440 1078.497070,1127.062012 
	C1076.520630,1127.082642 1074.544067,1127.065186 1072.004883,1127.065186 
	C1072.004883,1121.772705 1072.005005,1116.675781 1072.005005,1111.578857 
	C1072.005005,1106.618530 1072.004883,1101.658203 1072.004883,1096.451782 
	C1075.441406,1096.451782 1078.534302,1096.451782 1082.028076,1096.566650 
z"/>
<path fill="#F1F0EC" opacity="1.000000" stroke="none" 
	d="
M1301.554199,1107.283936 
	C1307.108765,1106.648438 1309.521118,1109.636230 1310.632080,1114.144409 
	C1311.935791,1119.436157 1310.102417,1125.881592 1306.653564,1127.623657 
	C1303.509644,1129.211914 1300.507080,1128.779053 1298.088989,1126.042725 
	C1293.679077,1121.052734 1295.388550,1110.854248 1301.554199,1107.283936 
z"/>
<path fill="#F1F0EC" opacity="1.000000" stroke="none" 
	d="
M1015.529053,1125.137573 
	C1015.141418,1120.475830 1014.334900,1115.985596 1015.160278,1111.818604 
	C1015.538391,1109.910034 1019.109375,1107.440674 1021.263184,1107.410400 
	C1023.450745,1107.379517 1026.921753,1109.613281 1027.606445,1111.615967 
	C1028.765259,1115.005005 1028.982422,1119.186646 1028.143555,1122.687012 
	C1026.555786,1129.311401 1020.795410,1130.362549 1015.529053,1125.137573 
z"/>
<path fill="#F1F0EC" opacity="1.000000" stroke="none" 
	d="
M979.041443,1114.069214 
	C976.741455,1114.069214 974.919617,1114.069214 972.828003,1114.069214 
	C972.760559,1109.382568 975.290222,1107.307861 979.317749,1106.800415 
	C983.773621,1106.238770 986.289062,1108.463989 987.340332,1114.069214 
	C984.676453,1114.069214 982.098083,1114.069214 979.041443,1114.069214 
z"/>
<path fill="#F1F0EC" opacity="1.000000" stroke="none" 
	d="
M1203.846313,1106.765381 
	C1208.084229,1107.364258 1210.032959,1109.603882 1210.522827,1113.746582 
	C1205.519043,1113.746582 1200.792603,1113.746582 1195.617432,1113.746582 
	C1196.109253,1108.959473 1198.835327,1106.871704 1203.846313,1106.765381 
z"/>
<path fill="#F1F0EC" opacity="1.000000" stroke="none" 
	d="
M1119.850098,1110.191162 
	C1125.904785,1104.395752 1131.590088,1105.862061 1133.783325,1113.702515 
	C1128.854736,1113.702515 1124.010132,1113.702515 1118.790283,1113.702515 
	C1119.077637,1112.653442 1119.364014,1111.607788 1119.850098,1110.191162 
z"/>
<path fill="#F1F0EC" opacity="1.000000" stroke="none" 
	d="
M649.230469,1111.003418 
	C648.825562,1112.272339 648.299927,1113.913696 647.684265,1113.948364 
	C643.558350,1114.179321 639.413269,1114.068237 635.274414,1114.068237 
	C634.915222,1113.661987 634.555969,1113.255737 634.196777,1112.849487 
	C636.033936,1110.937988 637.539673,1108.248779 639.783875,1107.292236 
	C643.392273,1105.754272 646.991760,1106.682983 649.230469,1111.003418 
z"/>
<path fill="#F1F0EC" opacity="1.000000" stroke="none" 
	d="
M685.274841,1107.170898 
	C687.241028,1109.178589 688.825928,1111.047974 691.204041,1113.853027 
	C684.789856,1113.853027 680.033325,1113.853027 675.275757,1113.852051 
	C675.393555,1108.189697 677.919922,1106.398804 685.274841,1107.170898 
z"/>
<path fill="#F1F0EC" opacity="1.000000" stroke="none" 
	d="
M1347.628784,1114.069214 
	C1343.875854,1114.069214 1340.573730,1114.069214 1337.013672,1114.069214 
	C1336.861084,1109.676514 1339.083740,1107.519165 1342.899414,1106.858276 
	C1347.531982,1106.055664 1350.106445,1108.037598 1351.763306,1113.740845 
	C1350.492432,1113.854126 1349.286011,1113.961670 1347.628784,1114.069214 
z"/>
<path fill="#F1F0EC" opacity="1.000000" stroke="none" 
	d="
M853.485535,1109.579102 
	C860.043884,1104.586304 865.566895,1106.408569 866.855713,1113.825684 
	C862.067688,1113.825684 857.316528,1113.825684 851.868713,1113.825684 
	C852.355530,1112.415039 852.791321,1111.152344 853.485535,1109.579102 
z"/>
<path fill="#F1F0EC" opacity="1.000000" stroke="none" 
	d="
M742.782471,1127.668701 
	C741.461975,1128.424316 740.468811,1129.109131 739.376526,1129.357422 
	C736.247070,1130.068604 733.014526,1129.886353 732.159668,1126.225952 
	C731.317932,1122.621826 734.213379,1121.471802 737.187378,1120.910889 
	C739.617676,1120.452271 742.052124,1120.015625 745.574707,1119.369263 
	C744.639709,1122.360107 743.852112,1124.879395 742.782471,1127.668701 
z"/>
<path fill="#F1F0EC" opacity="1.000000" stroke="none" 
	d="
M1258.041504,1107.691895 
	C1264.433105,1106.312378 1267.159180,1107.562866 1268.186401,1113.315674 
	C1268.824829,1116.890869 1268.520630,1120.961182 1267.390015,1124.398193 
	C1266.753052,1126.334473 1263.613892,1128.540527 1261.539795,1128.604370 
	C1259.452393,1128.668701 1256.565674,1126.706787 1255.299072,1124.792480 
	C1252.124146,1119.993896 1253.540039,1112.256836 1258.041504,1107.691895 
z"/>
<path fill="#EB6C23" opacity="1.000000" stroke="none" 
	d="
M872.368286,495.067139 
	C878.141724,495.257385 883.522827,494.969727 888.748291,495.739288 
	C900.841553,497.520294 907.579773,503.418549 909.287781,515.415710 
	C910.389954,523.157593 910.096558,531.404358 908.717102,539.118774 
	C906.834412,549.647583 899.187378,555.616516 887.881897,556.715942 
	C881.975464,557.290283 875.967163,556.817139 869.425598,556.817139 
	C869.425598,554.512512 869.425598,552.392578 869.425598,550.272644 
	C869.425598,533.466248 869.386292,516.659607 869.482849,499.853760 
	C869.493225,498.053833 868.142212,495.142151 872.368286,495.067139 
z"/>
<path fill="#EB6B22" opacity="1.000000" stroke="none" 
	d="
M1184.504272,530.877441 
	C1184.059204,537.493042 1184.368042,543.945618 1182.694092,549.834717 
	C1180.887085,556.192017 1175.786377,558.536560 1168.989380,558.264771 
	C1162.878174,558.020264 1157.635376,554.931519 1156.532715,548.718872 
	C1155.345459,542.028931 1155.100464,534.833862 1156.229248,528.161133 
	C1157.484375,520.742798 1163.013428,517.095581 1169.593750,517.001160 
	C1176.301758,516.904968 1180.963867,520.408203 1183.610474,527.581055 
	C1183.953857,528.511353 1184.130981,529.503052 1184.504272,530.877441 
z"/>
<path fill="#EC7029" opacity="1.000000" stroke="none" 
	d="
M210.714371,536.595642 
	C204.313232,536.595459 198.377670,536.595459 191.668015,536.595459 
	C195.724091,524.084473 199.570374,512.220642 203.416641,500.356781 
	C203.778458,500.314880 204.140259,500.272980 204.502075,500.231079 
	C208.368591,512.022461 212.235123,523.813904 216.315552,536.257568 
	C214.287308,536.391174 212.733612,536.493469 210.714371,536.595642 
z"/>
<path fill="#EB6C23" opacity="1.000000" stroke="none" 
	d="
M755.496460,525.748474 
	C758.458374,519.152832 763.371521,516.412720 770.056458,517.067688 
	C776.425720,517.691772 780.088196,521.721802 782.041992,527.520020 
	C784.633179,535.209961 784.455811,542.929932 781.548340,550.440918 
	C779.330444,556.170410 775.038391,559.590759 768.674438,559.802612 
	C762.871277,559.995728 757.523743,556.389038 755.282288,550.413818 
	C752.259521,542.355896 752.178162,534.190430 755.496460,525.748474 
z"/>
<path fill="#EB6C23" opacity="1.000000" stroke="none" 
	d="
M282.928711,501.108887 
	C282.928711,498.671448 282.928711,496.719177 282.928711,493.969818 
	C289.934753,494.347321 296.439606,494.177002 302.760315,495.174072 
	C310.178314,496.344208 314.133118,502.257568 314.156281,510.510406 
	C314.179138,518.652893 310.127441,524.740051 302.807312,525.908142 
	C296.486176,526.916687 289.982452,526.781067 282.928741,527.187683 
	C282.928741,518.134705 282.928741,509.864380 282.928711,501.108887 
z"/>
<path fill="#EC6D26" opacity="1.000000" stroke="none" 
	d="
M671.014038,530.649292 
	C671.267944,521.655273 677.527527,515.850464 686.253723,515.993286 
	C694.770752,516.132751 700.280640,521.663452 700.631653,530.839966 
	C690.872986,530.839966 681.123047,530.839966 671.014038,530.649292 
z"/>
<path fill="#EC6D26" opacity="1.000000" stroke="none" 
	d="
M973.039124,530.940247 
	C969.428528,530.940247 966.310059,530.940247 963.196899,530.940247 
	C963.351135,521.679993 969.991394,515.675781 979.190735,515.995300 
	C987.514709,516.284363 993.077881,522.165894 992.813843,530.940247 
	C986.404663,530.940247 979.967957,530.940247 973.039124,530.940247 
z"/>
</svg>